<?xml version="1.0" encoding="utf-8"?>
<!-- Generator: Adobe Illustrator 23.0.1, SVG Export Plug-In . SVG Version: 6.00 Build 0)  -->
<svg version="1.1" id="Слой_1" xmlns="http://www.w3.org/2000/svg" xmlns:xlink="http://www.w3.org/1999/xlink" x="0px" y="0px"
	 viewBox="0 0 1366 768" style="enable-background:new 0 0 1366 768;" xml:space="preserve">
<style type="text/css">
	.st0{fill:#EEC763;stroke:#6B6966;stroke-miterlimit:10;}
</style>
<polygon class="st0" points="581.84,411.2 652.44,376.66 721.1,414.88 709.86,337.46 767.64,284.35 690.09,271.02 657.17,200 
	620.5,269.18 542.34,278.4 597.21,334.47 "/>
<polygon class="st0" points="820.85,411.2 891.45,376.66 960.11,414.88 948.87,337.46 1006.65,284.35 929.1,271.02 896.19,200 
	859.51,269.18 781.36,278.4 836.22,334.47 "/>
<polygon class="st0" points="109.5,411.2 180.1,376.66 248.75,414.88 237.51,337.46 295.3,284.35 217.75,271.02 184.83,200 
	148.15,269.18 70,278.4 124.86,334.47 "/>
<polygon class="st0" points="345.67,411.2 416.27,376.66 484.93,414.88 473.69,337.46 531.47,284.35 453.92,271.02 421,200 
	384.33,269.18 306.17,278.4 361.04,334.47 "/>
<polygon class="st0" points="1059.2,411.2 1129.8,376.66 1198.46,414.88 1187.22,337.46 1245,284.35 1167.45,271.02 1134.53,200 
	1097.86,269.18 1019.7,278.4 1074.57,334.47 "/>
</svg>
